<svg width="22" height="21" viewBox="0 0 22 21" fill="none" xmlns="http://www.w3.org/2000/svg">
<path d="M19.2374 16.2062C19.2374 16.5062 19.1674 16.8146 19.0185 17.1146C18.8697 17.4146 18.6771 17.6979 18.4231 17.9646C17.9941 18.4146 17.5213 18.7396 16.9871 18.9479C16.4618 19.1562 15.8926 19.2646 15.2797 19.2646C14.3866 19.2646 13.4322 19.0646 12.4252 18.6562C11.4183 18.2479 10.4113 17.6979 9.41313 17.0062C8.40618 16.3062 7.45176 15.5312 6.54113 14.6729C5.63926 13.8062 4.82494 12.8979 4.09819 11.9479C3.38019 10.9979 2.80229 10.0479 2.38199 9.10623C1.9617 8.15623 1.75156 7.2479 1.75156 6.38123C1.75156 5.81457 1.85663 5.2729 2.06678 4.7729C2.27692 4.26457 2.60965 3.7979 3.07372 3.38123C3.63411 2.85623 4.24704 2.5979 4.89499 2.5979C5.14016 2.5979 5.38533 2.6479 5.60423 2.7479C5.83189 2.8479 6.03328 2.9979 6.19089 3.21457L8.2223 5.93957C8.37991 6.1479 8.49374 6.33957 8.57254 6.5229C8.65135 6.6979 8.69513 6.8729 8.69513 7.03123C8.69513 7.23123 8.63384 7.43123 8.51125 7.6229C8.39742 7.81457 8.23106 8.01457 8.02091 8.21457L7.35545 8.8729C7.25913 8.96457 7.21535 9.0729 7.21535 9.20623C7.21535 9.2729 7.22411 9.33123 7.24162 9.3979C7.26789 9.46457 7.29416 9.51457 7.31167 9.56457C7.46928 9.83957 7.74072 10.1979 8.12598 10.6312C8.52001 11.0646 8.9403 11.5062 9.39561 11.9479C9.86844 12.3896 10.3238 12.7979 10.7878 13.1729C11.2431 13.5396 11.6197 13.7896 11.9174 13.9396C11.9611 13.9562 12.0137 13.9812 12.075 14.0062C12.145 14.0312 12.2151 14.0396 12.2939 14.0396C12.4427 14.0396 12.5566 13.9896 12.6529 13.8979L13.3183 13.2729C13.5372 13.0646 13.7474 12.9062 13.9488 12.8062C14.1502 12.6896 14.3516 12.6312 14.5705 12.6312C14.7368 12.6312 14.9119 12.6646 15.1046 12.7396C15.2972 12.8146 15.4986 12.9229 15.7175 13.0646L18.6158 15.0229C18.8434 15.1729 19.001 15.3479 19.0974 15.5562C19.1849 15.7646 19.2374 15.9729 19.2374 16.2062Z" stroke="#63AE1D" stroke-width="1.5" stroke-miterlimit="10"/>
</svg>
