<svg width="29" height="29" viewBox="0 0 29 29" fill="none" xmlns="http://www.w3.org/2000/svg">
<g clip-path="url(#clip0_1_2386)">
<path fill-rule="evenodd" clip-rule="evenodd" d="M14.8049 0.738698C12.5632 0.74285 10.3138 1.38865 8.46048 2.6496C6.60711 3.91054 5.16713 5.79262 4.51903 7.93852C4.05613 9.47121 3.99632 11.1093 4.21948 12.6948C4.44265 14.2802 4.94272 15.8171 5.57719 17.2871C7.517 21.7813 10.7563 25.7058 14.8015 28.4623C18.8134 25.6719 22.0309 21.7522 23.9859 17.2734C24.6285 15.8014 25.1392 14.2627 25.3714 12.6735C25.6035 11.0843 25.5509 9.44005 25.0886 7.90192C24.4441 5.75785 23.0023 3.87901 21.1477 2.62481C19.2932 1.37062 17.0437 0.734551 14.8049 0.738698Z" fill="#1AAC29"/>
</g>
<defs>
<clipPath id="clip0_1_2386">
<rect width="28" height="28" fill="white" transform="translate(0.799988 0.600006)"/>
</clipPath>
</defs>
</svg>
