<svg width="20" height="20" viewBox="0 0 20 20" fill="none" xmlns="http://www.w3.org/2000/svg">
<path d="M16.7611 10.7778C16.4111 14.0056 13.8445 16.6111 10.5778 16.9611V19.3333H9.02223V16.9611C5.79445 16.6111 3.1889 14.0445 2.8389 10.7778H0.466675V9.22223H2.8389C3.1889 5.99445 5.75556 3.3889 9.02223 3.0389V0.666672H10.5778V3.0389C13.8056 3.3889 16.4111 5.95556 16.7611 9.22223H19.1333V10.7778H16.7611ZM9.80001 4.55556C6.80556 4.55556 4.35556 7.00556 4.35556 10C4.35556 12.9945 6.80556 15.4445 9.80001 15.4445C12.7945 15.4445 15.2445 12.9945 15.2445 10C15.2445 7.00556 12.7945 4.55556 9.80001 4.55556ZM9.80001 13.1111C8.0889 13.1111 6.6889 11.7111 6.6889 10C6.6889 8.28889 8.0889 6.88889 9.80001 6.88889C11.5111 6.88889 12.9111 8.28889 12.9111 10C12.9111 11.7111 11.5111 13.1111 9.80001 13.1111Z" fill="black"/>
</svg>
