  <svg width="30" height="30" viewBox="0 0 30 30" fill="none" xmlns="http://www.w3.org/2000/svg">
                    <rect width="30" height="30" rx="15" fill="#99AF32"></rect>
                    <path
                      d="M16.6667 16.6667V10M16.6667 16.6667L21.7519 19.5725C22.0853 19.763 22.5 19.5223 22.5 19.1384V7.52827C22.5 7.14435 22.0853 6.90367 21.7519 7.09414L16.6667 10M16.6667 16.6667H10.8333C8.99238 16.6667 7.5 15.1743 7.5 13.3333C7.5 11.4924 8.99238 10 10.8333 10H16.6667"
                      stroke="white"
                      stroke-width="1.66667"
                    ></path>
                    <path
                      d="M11.4643 21.0834L10.8333 16.6667H14.1667L14.731 20.6167C14.873 21.6107 14.1017 22.5 13.0976 22.5C12.2765 22.5 11.5804 21.8962 11.4643 21.0834Z"
                      stroke="white"
                      stroke-width="1.66667"
                    ></path>
                  </svg>