<svg width="310" height="474" viewBox="0 0 310 474" fill="none" xmlns="http://www.w3.org/2000/svg">
<mask id="mask0_13_1996" style="mask-type:luminance" maskUnits="userSpaceOnUse" x="-36" y="0" width="346" height="475">
<path d="M-35.2734 0H309.06V474.385H-35.2734V0Z" fill="white"/>
</mask>
<g mask="url(#mask0_13_1996)">
<path d="M307.208 234.331C307.185 234.192 307.154 234.061 307.108 233.93C307.108 233.93 307.1 233.93 307.1 233.921C307.077 233.833 307.039 233.755 307 233.685L237.265 92.4449C237.196 92.3051 237.111 92.1828 237.019 92.0605L237.011 92.0518C236.835 91.8421 236.627 91.6674 236.381 91.5539C236.381 91.5539 236.381 91.5539 236.374 91.5539H236.366C236.343 91.5451 236.32 91.5364 236.289 91.5189L15.9848 0.139561C15.785 0.0522093 15.5621 -0.000203259 15.3315 -0.000203259C15.2239 -0.0176726 15.1163 0.00853366 15.0164 0.0347377C14.6859 0.10462 14.3862 0.270588 14.1479 0.497706C14.0326 0.611263 13.925 0.742291 13.8328 0.899527C13.6252 1.23146 13.51 1.64202 13.51 2.07005C13.51 2.13993 13.5176 2.20108 13.5176 2.27096C13.5176 2.27096 13.5176 2.27096 13.5176 2.27969C13.5176 2.29717 13.5253 2.31464 13.5253 2.33211L25.2388 109.155L-29.5932 194.298C-29.7392 194.516 -29.8468 194.778 -29.9006 195.058V195.066C-29.916 195.136 -29.9314 195.198 -29.9391 195.267C-29.9391 195.267 -29.9391 195.267 -29.9391 195.276C-29.9391 195.276 -29.9391 195.276 -29.9391 195.285C-29.9468 195.337 -29.9468 195.398 -29.9468 195.46L-34.1049 329.336C-34.1126 329.493 -34.1049 329.659 -34.0741 329.816C-34.0741 329.816 -34.0741 329.816 -34.0741 329.825V329.834V329.843C-34.0741 329.851 -34.0741 329.86 -34.0741 329.877V329.886V329.895C-34.0665 329.895 -34.0741 329.904 -34.0665 329.904C-34.0665 329.912 -34.0665 329.912 -34.0665 329.921C-33.9896 330.288 -33.8205 330.62 -33.5976 330.882L86.8345 473.275C87.1881 473.703 87.6646 473.913 88.1411 473.913C88.1719 473.913 88.2026 473.913 88.2334 473.913L285.948 464.094C285.956 464.094 285.956 464.094 285.964 464.094H285.971C285.979 464.094 285.979 464.094 285.979 464.094C285.987 464.094 285.987 464.094 285.987 464.094H285.994C286.386 464.068 286.74 463.894 287.024 463.631C287.14 463.518 287.247 463.396 287.332 463.256C287.524 462.959 287.647 462.601 287.678 462.216C287.685 462.146 287.685 462.077 287.685 462.007L287.455 293.766L307.1 235.467C307.116 235.406 307.139 235.353 307.154 235.292C307.154 235.292 307.154 235.284 307.162 235.284C307.246 234.969 307.262 234.646 307.208 234.331C307.216 234.34 307.208 234.34 307.208 234.331ZM67.3735 274.662L126.833 135.527L157.969 207.75L67.3735 274.662ZM157.915 212.72L148.784 281.834L68.7032 278.619L157.915 212.72ZM136.894 329.904L-24.09 327.501L62.785 282.768L136.894 329.904ZM70.325 282.821L148.246 285.948L142.581 328.812L70.325 282.821ZM151.904 286.096L245.236 289.835L146.232 329.004L151.904 286.096ZM152.45 281.982L161.666 212.188L249.202 285.869L152.45 281.982ZM160.636 204.527L129.4 132.085L230.916 97.258L160.636 204.527ZM229.91 93.2747L127.347 128.469L22.2951 7.16269L229.91 93.2747ZM17.7987 7.87025L121.468 127.569L28.7667 107.959L17.7987 7.87025ZM27.9212 111.986L119.977 131.465L-23.1062 191.223L27.9212 111.986ZM123.22 134.523L62.2469 277.186L-24.5204 196.22L123.22 134.523ZM-26.4419 199.784L59.4569 279.947L-30.3695 326.182L-26.4419 199.784ZM87.6031 468.217L-27.9561 331.581L141.182 334.114L87.6031 468.217ZM91.0311 469.633L144.679 335.372L280.991 460.207L91.0311 469.633ZM147.662 332.821L253.621 290.901L283.104 456.835L147.662 332.821ZM257.287 290.647L283.835 295.172L284.035 441.191L257.287 290.647ZM284.48 291.102L258.986 286.769L300.905 242.333L284.48 291.102ZM254.858 285.476L167.376 211.856L301.459 236.096L254.858 285.476ZM163.572 206.973L235.459 97.2492L301.997 231.999L163.572 206.973Z" fill="#808285" fill-opacity="0.15"/>
</g>
</svg>
